<?xml version="1.0" encoding="UTF-8"?>
<svg id="Layer_1" data-name="Layer 1" xmlns="http://www.w3.org/2000/svg" viewBox="0 0 181 169.97">
  <defs>
    <style>
      .cls-1 {
        fill: #a33221;
      }

      .cls-1, .cls-2, .cls-3, .cls-4, .cls-5, .cls-6, .cls-7, .cls-8, .cls-9, .cls-10, .cls-11, .cls-12, .cls-13, .cls-14, .cls-15, .cls-16, .cls-17, .cls-18, .cls-19, .cls-20, .cls-21, .cls-22, .cls-23, .cls-24, .cls-25, .cls-26, .cls-27, .cls-28, .cls-29, .cls-30, .cls-31, .cls-32 {
        stroke-width: 0px;
      }

      .cls-2 {
        fill: #f8b9bf;
      }

      .cls-3 {
        fill: #f8b9c2;
      }

      .cls-4 {
        fill: #a43120;
      }

      .cls-5 {
        fill: #f8b8c0;
      }

      .cls-6 {
        fill: #dc462e;
      }

      .cls-7 {
        fill: #a13832;
      }

      .cls-8 {
        fill: #f8bac2;
      }

      .cls-9 {
        fill: #a83627;
      }

      .cls-10 {
        fill: #f7bac2;
      }

      .cls-11 {
        fill: #91bb3e;
      }

      .cls-12 {
        fill: #a53120;
      }

      .cls-13 {
        fill: #f8bac1;
      }

      .cls-14 {
        fill: #a5301f;
      }

      .cls-15 {
        fill: #f7bac3;
      }

      .cls-16 {
        fill: #a73122;
      }

      .cls-17 {
        fill: #f7bac1;
      }

      .cls-18 {
        fill: #a4311f;
      }

      .cls-19 {
        fill: #a6311f;
      }

      .cls-20 {
        fill: #a62f1e;
      }

      .cls-21 {
        fill: #a43022;
      }

      .cls-22 {
        fill: #f9b9c0;
      }

      .cls-23 {
        fill: #a33020;
      }

      .cls-24 {
        fill: #a53020;
      }

      .cls-25 {
        fill: #f9f8f7;
      }

      .cls-26 {
        fill: #a03a32;
      }

      .cls-27 {
        fill: #a43021;
      }

      .cls-28 {
        fill: #a4311e;
      }

      .cls-29 {
        fill: #a63021;
      }

      .cls-30 {
        fill: #f9b9c1;
      }

      .cls-31 {
        fill: #f0ecd8;
      }

      .cls-32 {
        fill: #faf7f3;
      }
    </style>
  </defs>
  <path class="cls-6" d="M39.77,54.05c1.49.1,2.94-.27,4.39-.49,1.67-.25,3.23-.23,4.84.43,5.51,2.25,10.97,4.63,16.31,7.24,2.93,1.43,5.61,3.36,8.41,5.05,6.36,3.84,12.77,7.6,19.3,11.15,3.21,1.74,6.41,3.53,9.89,4.69,2.28.76,4.69.88,7.06,1.14,7.22.78,14.46,1.28,21.72,1.46,3.53.08,6.91-.71,10.31-1.42,5.59-1.18,11.18-2.37,16.73-3.72,2.22-.54,4.24-1.74,6.36-2.62,2.28-.95,4.56-1.9,6.85-2.83,1.04-.42,1.36-.2,1.13.88-.69,3.13-1.68,6.12-3.91,8.57-2.94,3.24-6.08,6.25-9.6,8.86-1.95,1.44-4.16,2.36-6.38,3.2-9.09,3.45-18.34,6.45-27.63,9.33-2.25.7-4.64.84-6.97,1.18-4.17.6-8.34,1.22-12.53,1.7-4.51.52-9.04,1.04-13.59.78-2.54-.14-5-.8-7.48-1.31-7.62-1.56-15.22-3.21-22.84-4.73-8.43-1.68-16.65-4.07-24.77-6.82-2.15-.73-4.28-1.5-6.4-2.31-1.95-.75-3.55-1.92-4.97-3.43-1.54-1.64-2.95-3.37-4.21-5.23-2.16-3.19-3.66-6.54-2.79-10.53-.24-1.93.65-3.62,1.19-5.38.88-2.83,2.54-5.22,4.32-7.54.68-.88,1.66-1.39,2.51-2.07,1.75-1.39,3.61-2.63,5.61-3.66,1.19-.62,2.42-1.09,3.77-1.09.84,0,1.59-.43,2.42-.44.32,0,.64-.05.97-.05Z"/>
  <path class="cls-8" d="M155.43,149.57c-.12.9.32,1.05,1.16,1.09,4,.17,7.99.43,11.98.66,1.29.07,2.59.17,3.88.19,2.03.03,4.05.21,6.08.34.63.04.98.5,1.05.92.12.66.51.86,1.02,1.04-.67.34-.76.92-.79,1.61-.17,3.83-.37,7.65-.92,11.45-.05.38-.13.76-.24,1.12-.21.71-.63,1.1-1.42,1.02-.7-.08-1.41-.04-2.12-.04-4.86.05-9.73-.17-14.59-.23-2.89-.04-5.78-.05-8.66-.13-1.18-.03-2.35-.27-3.53-.09-.29-.47-.76-.35-1.18-.36-1.11,0-1.3-.16-1.44-1.28-.26-2.13-.35-4.27-.38-6.41-.01-.8.15-1.5.59-2.15.33-.48.72-.65,1.35-.56,2.49.37,4.99.68,7.48,1.01,1.13.15,2.26.32,3.38.5,1.11.17,1.36.03,1.55-.92q.27-1.4-1.17-1.54c-.14-.01-.27-.09-.4-.14.25-.31.62-.24.77-.26-3.69-.2-7.55-.57-11.35-1.33-.24-.05-.5-.21-.76-.04-.52-.51-1.24-.46-1.87-.62-.56-.15-.78-.43-.8-.97-.11-4.09-.05-8.17.16-12.25.08-1.61.08-3.23.17-4.85.17-2.96.32-5.92.91-8.83.31-1.55,1.38-2.4,2.95-2.6,3.96-.52,7.96-.54,11.93-1.01,1.22-.15,2.46-.08,3.7-.17,3.02-.21,6.05-.29,9.08-.38,1.47-.04,1.57.09,1.77,1.54.02.14.1.27.15.4.51.89.38,1.9.43,2.84.31,5.62.48,11.25.39,16.88,0,.09,0,.18,0,.27-.03,2.05-.38,2.3-2.42,2.46-3.68.29-7.36.13-11.04.09-2.09-.02-4.18.18-6.26-.04-.09,0-.18,0-.27,0-1.27.05-1.88.86-1.57,2.1.11.45.38.49.71.22.19-.16.19-.52.53-.53Z"/>
  <path class="cls-3" d="M111.35,31.92c-.51-.32-1.12-.28-1.68-.46-.55-.18-.84-.45-.83-1.07.02-3.98-.05-7.95.04-11.93.07-3.03.3-6.05.52-9.07.11-1.49.36-2.97.55-4.45.09-.72.45-1.34.83-1.93.32-.49.74-.83,1.41-.93,2.12-.32,4.26-.48,6.39-.64,3.37-.25,6.74-.48,10.12-.7,1-.06,2-.08,3-.16,1.94-.15,3.88-.17,5.83-.21,1.71-.03,1.93.22,1.99,1.98.35.25.41.62.44,1.02.13,1.7.26,3.41.33,5.11.19,4.65.28,9.31.21,13.97,0,.47-.06.94-.24,1.39-.22.55-.6.85-1.2.89-2.41.17-4.82.16-7.24.1-3.94-.09-7.89-.29-11.84.08-.78.07-1.43,1.51-.99,2.18.19.29.44.26.66.04.18-.18.2-.51.52-.56-.15.97.37,1.09,1.21,1.13,3.99.18,7.97.45,11.96.66,1.14.06,2.29.12,3.43.17,2.11.09,4.22.21,6.33.35.63.04,1.08.41,1.09.81.02.86.59.97,1.15,1.18-.68.34-.74.92-.78,1.61-.21,3.7-.34,7.42-.89,11.09-.03.23-.08.47-.13.7-.32,1.55-.55,1.73-2.12,1.76-5.48.09-10.96-.18-16.44-.23-2.77-.03-5.54-.05-8.3-.13-1.2-.03-2.4-.27-3.61-.1-.29-.47-.77-.41-1.19-.34-.99.16-1.34-.37-1.42-1.21-.14-1.46-.26-2.92-.35-4.38-.05-.85.03-1.71-.03-2.56-.05-.81.39-1.38.82-1.98.23-.33.57-.36.95-.31,3.74.52,7.48,1.05,11.22,1.55,1.08.15,1.24,0,1.38-1.11.06-.46.12-.93.17-1.39-.25-.29-.58-.39-.95-.4-2.86-.04-5.69-.43-8.51-.81-1.28-.17-2.55-.37-3.8-.7Z"/>
  <path class="cls-8" d="M72.19,39c.08.12.15.23.32.49-.04-1.19.08-2.22.17-3.26.24-3.07.4-6.15.67-9.23.16-1.84.27-3.69.42-5.54.18-2.22.43-4.44.64-6.66.14-1.43.28-2.86.41-4.3.21-2.22.35-4.44.68-6.65.11-.75,0-1.52.18-2.28.1-.39.19-.61.63-.7,1.67-.31,3.35-.59,5.05-.7,1.94-.13,3.89-.24,5.83-.15,3.31.16,6.64.19,9.93.67.46.07.94.08,1.41.09.88.02,1.19.48,1.1,1.31-.02.2,0,.41.01.62.36.25.39.63.44,1.02,1.09,9.05,2.36,18.07,3.48,27.12.58,4.68,1.12,9.37,1.58,14.06.09.97-.12,1.22-1.1,1.25-2.18.06-4.37-.09-6.55.1-.35-.54-.89-.36-1.37-.35-.67.02-.99-.22-1.16-.91-.58-2.34-.86-4.72-1.19-7.1-1.21-.7-2.53-.36-3.81-.41-.37-.01-.31.44-.34.71-.24,2.17-.22,4.35-.34,6.53-.09,1.57-.25,1.84-1.81,1.78-3.06-.13-6.12-.24-9.17-.49-.94-.08-1.89.04-2.82-.12-.07-.05-.14-.13-.22-.14-1.19-.1-2.22-.48-2.93-1.52-.02-.03-.2.04-.31.07-.25-1.76-.3-3.52.1-5.26,0-.02.04-.04.06-.06Z"/>
  <path class="cls-13" d="M110.76,168.88c-.5-.16-.96-.38-1.52-.38-.69,0-1.68-1.26-1.65-1.96.13-2.79.2-5.59.39-8.37.24-3.51.57-7.02.85-10.53.19-2.4.34-4.8.56-7.2.25-2.72.58-5.43.85-8.14.21-2.07.37-4.15.56-6.22.05-.55.12-1.11.18-1.66.04-.38.33-.44.62-.52,1.48-.42,3-.57,4.52-.69,2.29-.18,4.59-.32,6.89-.19,3.11.17,6.22.26,9.31.66.17.02.35.02.53.03q1.73.05,2.1,1.76c.02.08.1.14.15.21.44,1.08.43,2.24.56,3.37.62,5.27,1.38,10.52,2.04,15.79.8,6.38,1.66,12.74,2.3,19.14.13,1.29.29,2.58.41,3.87.09.94,0,1.09-.93,1.21-1.7.22-3.42.06-5.13.1-.53.01-1.07-.05-1.55.25-.21-.46-.59-.53-1.06-.53-1.31.02-1.36,0-1.59-1.27-.35-1.89-.63-3.79-.91-5.69-.05-.36-.17-.68-.35-.98-.24-.44-.71-.36-1.09-.42-.73-.11-1.47,0-2.21-.12-.46-.07-.67.16-.67.59,0,.89-.24,1.76-.19,2.64.09,1.6-.18,3.18-.2,4.77-.01.86-.25,1.07-1.14,1.11-1.62.07-3.24-.14-4.85-.22-2.26-.11-4.53-.19-6.79-.31-.32-.02-.65-.04-.97-.09Z"/>
  <path class="cls-30" d="M60.62,169.23c-.24-.4-.63-.39-1.01-.35-.95.09-1.41-.29-1.63-1.26-.49-2.23-.72-4.5-1.07-6.76-.82-.54-1.76-.39-2.66-.4-1.4-.02-1.46-.01-1.56,1.34-.14,2.05-.28,4.11-.29,6.17,0,1.34-.21,1.56-1.54,1.52-3.15-.11-6.29-.27-9.43-.49-.62-.04-1.24-.03-1.86-.04-.39,0-.76-.05-1.1-.27-.2-.05-.41-.19-.59-.15-1.2.26-1.73-.62-2.37-1.33-.15-.17-.18-.34-.17-.57.11-1.91.18-3.82.31-5.72.21-3.05.44-6.09.67-9.14.12-1.64.24-3.28.38-4.92.22-2.49.45-4.97.68-7.45.19-2.14.36-4.27.57-6.41.28-2.86.59-5.72.88-8.58.03-.3.15-.48.46-.55,1.67-.34,3.35-.62,5.05-.72,2.12-.13,4.24-.28,6.36-.15,3.17.18,6.35.23,9.5.66.17.02.35.02.53.02,1.83.05,1.9.12,2.03,1.99.29.21.38.51.42.84,1.27,10.95,2.92,21.86,4.12,32.82.3,2.75.65,5.5.9,8.26.11,1.24-.12,1.5-1.4,1.53-2.06.05-4.13-.08-6.19.09Z"/>
  <path class="cls-11" d="M39.77,54.05c-.82.5-1.83.59-2.68.62-2.21.08-4.04.95-5.88,2.01-1.74,1-3.3,2.25-4.89,3.46-2.86,2.19-4.5,5.21-5.78,8.49-.72,1.83-1.24,3.71-1.57,5.64-1.29-1.41-1.17-3.27-1.57-4.96-.49-2.09.59-3.9,1.21-5.78.17-.53.38-1.05.58-1.57.3-.81.68-1.53,1.44-2.05.86-.6.85-1.29-.02-1.87-1.78-1.2-3.58-2.35-5.38-3.52-.44-.28-.96-.29-1.44-.38-1.47-.27-2.95-.51-4.43-.75-.56-.09-1.12-.06-1.67.09-.65.18-.9.04-.96-.73-.15-2.08.53-3.87,1.58-5.59.62-1.01,1.03-1.18,2.1-.74,3.12,1.3,6.19,2.65,8.63,5.16,1.6,1.64,3.26,3.22,4.66,5.04.41.54.69.39,1.06.04,1.31-1.23,2.91-1.97,4.47-2.79,1.18-.62,2.4-.76,3.68-.68,1.73.11,3.47.24,5.2.36.59.04,1.17.13,1.66.51Z"/>
  <path class="cls-10" d="M3.55,150.81c-.51-.49-1.12-.14-1.68-.17-.48-.03-.7-.11-.8-.66-.39-2.2-.68-4.4-.87-6.63-.3-3.57-.2-7.13-.11-10.69.07-2.78.21-5.58.63-8.34.01-.09.03-.18.02-.26-.18-1.81.29-1.74,1.95-1.8,2.56-.09,5.12-.07,7.67.05,3.64.17,7.28.28,10.91.64,1.84.19,3.7.24,5.54.39,1.84.15,3.68.35,5.52.52.27.02.52.11.46.4-.23,1.06.35,1.43,1.26,1.55-.68.26-.83.76-.78,1.45.27,4.12.34,8.25.5,12.38.12,2.86.14,5.73-.16,8.58-.07.66-.41,1.02-1.07,1.06-2.74.18-5.47.42-8.21.55-2.94.14-2.38.36-2.38,2.36,0,5.34-.37,10.67-.38,16.02,0,1.07-.24,1.32-1.33,1.26-1.59-.08-3.17-.25-4.75-.38-.21-.02-.39-.12-.57-.23-.23-.05-.45-.13-.68-.16-1.73-.23-2.6-1.26-2.69-3.03-.25-4.58-.4-9.17-.34-13.76,0-.57-.16-.82-.75-.75-.23.03-.47-.03-.7-.05.09-.42.53-.29.96-.6-2.52.03-4.84.18-7.17.28Z"/>
  <path class="cls-13" d="M43.27,47.14c-.2-.06-.39-.15-.59-.17-1.77-.18-2.68-1.2-2.77-2.99-.58-11.15-.36-22.3-.3-33.45.02-3.03.08-6.07.12-9.11,0-.5.16-.71.68-.93,1.85-.78,3.73-.31,5.59-.22,1.13.05,2.25.39,3.38.57.67.1,1.12.33,1,1.12-.04.3.2.48.34.7.11.34.1.7.1,1.05.05,6.4-.31,12.8-.18,19.2.01.59-.12,1.17-.16,1.76-.07,1.18-.01,1.26,1.11,1.58.35.2.74.16,1.12.17,3.77.02,7.51.39,11.27.67,1.93.14,3.85.46,5.78.58.36.02.63.06.64.52.02.79.31,1.37,1.22,1.41-.77.38-.87,1.04-.75,1.79.21,1.29.13,2.59.14,3.89,0,1.09.02,2.18.14,3.27.27,2.59-.27,5.12-.76,7.64-.18.94-1.13,1.67-2.1,1.57-3.45-.34-6.9.03-10.35-.27-2.14-.19-4.31.05-6.46-.08-2.48-.14-4.95-.14-7.43-.14-.27,0-.53-.07-.79-.11Z"/>
  <path class="cls-10" d="M77.46,169.05c-.62-.32-1.33-.15-1.99-.32-.47-.12-.67-.3-.65-.76,0-.18,0-.35,0-.53-.07-3.74-.04-7.49-.23-11.22-.12-2.27-.04-4.54-.15-6.8-.22-4.65-.23-9.3-.39-13.95-.1-2.88-.05-5.77-.3-8.64-.04-.44.18-.71.44-1.06,1.25-1.69,3.15-1.86,4.96-2.33,3.56-.91,7.19-1.18,10.83-1.12,3.37.06,6.75.24,10.09.79,1.21.2,2.42.45,3.65.57.54.05.74.3.68.8-.04.39.12.68.36.96.15,1.02.28,2.04.28,3.08,0,3.51.08,7.03-.03,10.53-.08,2.74-.22,5.48-.45,8.21-.15,1.88-.23,3.77-.41,5.64-.11,1.09-.32,1.28-1.43,1.37-4.06.32-8.13.42-12.2.34-1.71-.04-3.4-.32-5.1-.44-1.28-.09-1.3-.04-1.3,1.22,0,3.84,0,7.67,0,11.51,0,1.76-.72,2.62-2.47,2.55-1.4-.06-2.84.05-4.21-.39Z"/>
  <path class="cls-28" d="M77.46,169.05c1.14-.2,2.27.06,3.41.1.49.02.99.16,1.48-.02,1.56-.58,1.56-.58,1.56-2.25,0-4.05.02-8.09-.02-12.14,0-.79.19-1.03.99-.92,5.55.82,11.12.61,16.7.21.03,0,.06,0,.09,0,.69-.11,1.57.25,2.04-.25.45-.48.23-1.36.28-2.05.61-7.98,1.04-15.97.75-23.97-.03-.77-.37-1.55.02-2.31.57.11,1.04.15,1.12,1,.47,5.1.36,10.2.17,15.3-.16,4.13-.51,8.25-.76,12.37-.03.54-.29.6-.72.63-4.36.36-8.72.47-13.09.22-1.79-.1-3.59-.3-5.37-.53-.68-.09-.84.08-.84.75.03,4.37.02,8.74.01,13.11,0,1.06-.5,1.66-1.55,1.62-1.95-.08-3.89-.25-5.83-.37-.35-.02-.46-.19-.46-.5Z"/>
  <path class="cls-24" d="M14.92,168.87c1.8-.06,3.58.23,5.36.38.76.06,1.01-.11,1.02-.92.1-5.84.27-11.68.38-17.53.01-.81.21-1.1,1.08-1.14,3.24-.16,6.47-.43,9.71-.63.64-.04.84-.28.88-.91.36-4.96.05-9.91-.12-14.87-.08-2.3-.19-4.6-.3-6.9-.05-1.09.77-.32,1.11-.55.39,1.08.25,2.21.3,3.31.31,6.4.63,12.8.42,19.21,0,.27-.04.53-.04.8,0,.43-.19.59-.64.62-3.36.21-6.71.47-10.07.66-.72.04-.93.23-.94.96-.12,5.79-.27,11.57-.43,17.35-.04,1.29-.07,1.28-1.34,1.16-1.82-.17-3.64-.34-5.47-.47-.43-.03-.74-.15-.91-.55Z"/>
  <path class="cls-24" d="M132.79,169.4c-.13-.57.26-.51.62-.52,2.07-.03,4.13-.09,6.2-.09.55,0,.64-.18.58-.66-.59-5.36-1.17-10.72-1.87-16.07-.64-4.85-1.23-9.71-1.85-14.56-.44-3.48-.9-6.95-1.35-10.43-.06-.47-.14-.93-.03-1.41.9,0,1.15.45,1.26,1.34.69,5.82,1.47,11.63,2.21,17.44.75,5.99,1.58,11.97,2.21,17.97.21,2.05.44,4.1.69,6.15.09.69-.05.98-.84.97-2.3-.03-4.6.03-6.9.05-.31,0-.66.11-.91-.19Z"/>
  <path class="cls-24" d="M97.49,46.27c.04-.54.46-.35.74-.35,1.98-.03,3.95-.07,5.93-.05.62,0,.81-.14.74-.8-.95-9.23-2.16-18.43-3.33-27.63-.6-4.67-1.19-9.35-1.78-14.02-.03-.23-.09-.46-.14-.69.83-.06,1.3.14,1.42,1.14.51,4.54,1.11,9.07,1.68,13.6.68,5.35,1.39,10.7,2.05,16.06.48,3.95.9,7.91,1.36,11.87.13,1.14.14,1.14-1.04,1.16-2.24.03-4.49.05-6.73.07-.32,0-.74.15-.88-.35Z"/>
  <path class="cls-14" d="M60.62,169.23c.05-.53.47-.34.75-.35,1.89-.04,3.78-.07,5.67-.06.77,0,1.04-.12.95-1.04-.56-5.42-1.19-10.84-1.87-16.25-.66-5.23-1.37-10.46-2.05-15.69-.44-3.39-.86-6.78-1.29-10.17,1.22.04,1.25.08,1.39,1.25.74,6.41,1.61,12.81,2.45,19.21.86,6.6,1.72,13.21,2.38,19.84.09.94.2,1.88.32,2.81.06.45-.02.71-.57.71-2.51,0-5.02.05-7.52.08-.28,0-.54,0-.6-.36Z"/>
  <path class="cls-29" d="M120.16,26.56c-.17.56-.1,1.32-1.11,1.11-.37-.08-.52-.17-.48-.54.08-.7.15-1.41.2-2.11.03-.42.31-.44.62-.44,3.39-.01,6.79-.03,10.18-.04,3.16,0,6.31.12,9.47-.03.57-.03.89-.25,1-.78.08-.37.15-.76.16-1.13.13-6.49-.12-12.98-.55-19.45-.02-.26-.09-.52-.14-.78.82-.19,1.33-.02,1.4.97.49,6.92.81,13.85.62,20.79-.03.93-.35,1.18-1.24,1.17-6.23-.05-12.46-.06-18.68-.08-1.54,0-1.34-.2-1.43,1.35Z"/>
  <path class="cls-23" d="M155.43,149.57c-.32.27.12.87-.43,1.04-.83.26-1.2-.04-1.12-.91.01-.18.04-.35.07-.53.24-1.7.24-1.69,2-1.68,6.05.03,12.09.11,18.14-.02.87-.02,1.27-.35,1.32-1.15.05-.76.08-1.53.09-2.3.06-6.02-.16-12.03-.57-18.04-.02-.23,0-.47,0-.71.95-.2,1.19.3,1.26,1.15.5,6.3.69,12.61.68,18.92,0,2.9-.02,2.9-2.87,2.89-5.72-.02-11.45-.05-17.17-.06-1.47,0-1.31-.27-1.4,1.38Z"/>
  <path class="cls-27" d="M43.27,47.14c.21-.33.54-.18.81-.18,7.61.13,15.22.27,22.83.42.44,0,.88.06,1.32.07,1.15.02,1.76-.61,2.01-1.73,1.13-5,.46-10.04.34-15.06-.02-.89.16-1.25,1.06-1.08.44.35.28.86.3,1.3.11,2.71.18,5.41.26,8.12,0,1.17,0,2.34-.03,3.5-.01.61-.09,1.21-.14,1.82-.14.9-.24,1.81-.43,2.71-.15.72-.55,1.17-1.41,1.15-8.47-.19-16.94-.36-25.42-.54-.54-.01-1.15.13-1.5-.49Z"/>
  <path class="cls-24" d="M148.33,168.53c.1-.5.5-.32.78-.31,9.32.18,18.65.34,27.97.57.95.02,1.24-.34,1.39-1.14.37-1.91.53-3.85.68-5.79.18-2.35.32-4.71.39-7.07.02-.8.24-1.15,1.05-.98.23.23.42.47.4.84-.27,4.71-.42,9.43-1.06,14.11-.08.62-.36.74-.93.73-9.09-.18-18.17-.33-27.26-.5-.94-.02-1.89-.06-2.83-.08-.28,0-.54-.03-.58-.39Z"/>
  <path class="cls-14" d="M113.06,45.55c.14-.54.57-.31.88-.3,9.08.17,18.16.35,27.24.52,1.77.03,1.8.04,2.12-1.73.5-2.76.61-5.56.8-8.35.09-1.29.19-2.59.17-3.89-.01-.84.28-1.12,1.06-.96.2.25.41.45.39.84-.27,4.71-.43,9.43-1.08,14.11-.07.51-.22.74-.83.73-9.15-.19-18.3-.35-27.45-.52-.94-.02-1.89-.06-2.83-.08-.28,0-.45-.09-.48-.39Z"/>
  <path class="cls-18" d="M51.6,26.24c-1.32.28-1.39.23-1.36-1.05.17-7.25.25-14.49.29-21.74,0-.27-.14-.6.2-.8.89,0,1.12.45,1.12,1.32,0,7.42-.14,14.85-.25,22.27Z"/>
  <path class="cls-4" d="M110.76,168.88c.25-.39.65-.21.96-.19,3.86.17,7.72.34,11.57.57.74.04.95-.16.97-.9.07-2.56.23-5.12.34-7.69.02-.34.01-.66.51-.62,1.12.1,2.23.16,3.35.26.34.03.79.07.41.61-.7-.06-1.41-.08-2.11-.18-.6-.09-.74.14-.76.71-.09,2.53-.25,5.05-.34,7.58-.02.69-.16.97-.94.93-4.35-.26-8.7-.46-13.05-.67-.38-.02-.69-.1-.92-.41Z"/>
  <path class="cls-21" d="M38.48,168.7c3.43,0,6.84.3,10.26.44.88.03,1.77.05,2.65.13.56.05.7-.2.72-.7.1-2.51.26-5.01.33-7.52.02-.76.12-1.12,1.03-.94.83.16,1.71.09,2.56.15.39.03.87,0,.88.61-.8.1-1.59-.05-2.38-.13-.5-.05-.65.11-.67.61-.1,2.5-.25,5-.34,7.51-.03.79-.19,1.16-1.15,1.1-4.26-.28-8.54-.47-12.81-.66-.5-.02-.83-.2-1.09-.6Z"/>
  <path class="cls-1" d="M75.48,45.91c.96-.46,1.95-.14,2.92-.11,3.24.12,6.48.29,9.71.48.69.04.85-.23.87-.85.09-2.53.25-5.06.34-7.6.02-.62.17-.81.82-.72.9.13,1.82.1,2.73.17.4.03.86.03.9.62-.8.1-1.59-.08-2.38-.14-.52-.04-.64.13-.66.62-.1,2.57-.25,5.13-.35,7.7-.02.63-.13.95-.89.9-4.36-.25-8.73-.46-13.09-.67-.38-.02-.7-.09-.92-.41Z"/>
  <path class="cls-7" d="M111.35,31.92c1.46.18,2.91.36,4.37.55,2.72.34,5.44.66,8.18.71.44,0,.87,0,.71.65-2,.01-3.97-.34-5.96-.52-2.17-.2-4.32-.55-6.45-1.03-.31-.07-.64-.07-.85-.36Z"/>
  <path class="cls-9" d="M3.55,150.81c.08-.36.38-.32.63-.32,2.07-.07,4.13-.15,6.2-.2.27,0,.73-.21.76.32.03.6-.48.36-.78.42-.2.04-.4.07-.6.1-1.8.03-3.6,0-5.39.16-.39.04-.8.11-.81-.48Z"/>
  <path class="cls-26" d="M146.76,155.05c.18-.33.47-.16.7-.12,3.81.64,7.64,1.06,11.5,1.21.32.01.89-.16.88.29,0,.51-.55.21-.86.24-.29.03-.59,0-.88,0-3.52-.3-7.04-.62-10.49-1.41-.29-.07-.57-.14-.85-.22Z"/>
  <path class="cls-3" d="M47.92,57.56c.54-.09.98.21,1.44.39,3.05,1.16,6.15,2.21,9.13,3.53,5.6,2.49,10.62,5.96,15.5,9.62.93.7,1.62,1.53,1.71,2.75.07.99-.07,1.12-1.01.81-1.55-.51-2.92-1.39-4.33-2.18-2.9-1.63-5.67-3.47-8.47-5.26-2-1.28-4.32-1.85-6.57-2.52-4.12-1.23-8.24-2.41-12.36-3.63-.6-.18-1.33-.32-1.27-1.21.05-.77.71-1.45,1.53-1.57,1.57-.24,3.14-.48,4.71-.72Z"/>
  <path class="cls-5" d="M77.65,75.6c0-1.14.83-1.73,1.72-1.26,1.08.58,2.15,1.24,2.73,2.42.37.75.24,1.09-.56,1.13-1.32.06-2.47-.49-3.5-1.24-.36-.26-.38-.78-.38-1.04Z"/>
  <path class="cls-20" d="M178.31,153.64c.08,3.07-.28,6.12-.45,9.18-.07,1.32-.29,2.63-.39,3.95-.04.56-.22.75-.8.74-9.23-.17-18.46-.32-27.69-.46-.59,0-.88-.18-.82-.8.02-.2.03-.42-.12-.59-.51-1.85-.48-3.7.04-5.52.15-.51.63-.69,1.23-.61,3.01.4,6.01.84,9.02,1.21.91.11,1.81.24,2.72.33.36.04.69,0,.76-.42.21-1.21.58-2.41.4-3.67-.88-.03-1.19-.44-.91-1.31.17-.52-.14-.61-.61-.65-3.28-.27-6.57-.35-9.82-.84-1.25-.19-2.5-.37-3.75-.53-.25-.03-.46-.09-.55-.35-.31-.34-.25-.77-.25-1.18-.02-5.13.15-10.26.49-15.39.14-2.18.31-4.35.58-6.52.06-.5.13-1,.3-1.47.44-1.21,1.15-2.04,2.59-2.17,3.88-.35,7.76-.58,11.64-.88,3.38-.26,6.77-.34,10.15-.63.49-.04,1.01-.15,1.43.25.37.81.26,1.69.31,2.52.34,5.83.55,11.67.45,17.51-.01.77-.23.99-1,1-6.37.05-12.75,0-19.12-.13-.9-.02-1.23.22-1.28,1.12-.06,1.26-.22,2.52-.38,3.78-.05.44.09.59.51.58.41,0,.83.04,1.24.04.49,0,.87.15,1.04.66.3-.25.65-.25,1.01-.22,4.16.29,8.34.44,12.5.7,2.87.18,5.76.23,8.63.51.32.03.65.01.9.28Z"/>
  <path class="cls-31" d="M173.5,125.31c-5.51.23-11.02.58-16.52.99-2.21.17-4.41.32-6.61.56-1.48.16-2.2.79-2.51,2.32-.44,2.14-.58,4.32-.73,6.5-.4,5.86-.52,11.74-.56,17.61-.98.29-1.23.13-1.23-.89,0-3.57-.07-7.14.05-10.7.13-3.93.44-7.86.69-11.78.03-.52.17-1.04.29-1.55.47-1.97.93-2.26,2.97-2.39,2.66-.16,5.32-.49,7.98-.65,1.85-.11,3.69-.29,5.54-.35,3.29-.12,6.57-.48,9.87-.4.5.01,1-.02.77.73Z"/>
  <path class="cls-31" d="M162.21,156.98c.53-.07.4.28.35.57-.16,1.08-.34,2.15-.47,3.23-.06.54-.26.67-.8.59-3.15-.44-6.3-.85-9.45-1.27-.93-.12-1.87-.27-2.8-.38-.52-.07-1.06.63-1.06,1.44,0,1.5.03,3.01.05,4.51-.01.29-.03.59-.04.88,0,.24.03.5-.31.53-.3.03-.61.03-.73-.33-.08-.25-.18-.51-.18-.77.04-1.94-.29-3.87-.2-5.82.05-1.03.2-1.18,1.18-1.05,3.54.47,7.08.95,10.62,1.42.52.07,1.05,0,1.57.17.36.11.61-.02.66-.46.08-.64.26-1.26.32-1.9.11-1.26.08-1.26,1.28-1.35Z"/>
  <path class="cls-31" d="M178.31,153.64c-5.03-.26-10.06-.52-15.1-.8-2.65-.14-5.29-.31-7.94-.47-.04-.46.24-.52.61-.52,2.06,0,4.1.15,6.15.32,1.23.1,2.46.08,3.69.17,2.9.22,5.81.23,8.71.43,1.14.08,2.29.12,3.43.16.44.01.8.14.45.7Z"/>
  <path class="cls-20" d="M143.04,30.68c.04,2.95-.26,5.89-.45,8.83-.09,1.41-.31,2.81-.39,4.22-.04.67-.29.82-.92.8-6.67-.14-13.33-.26-20-.37-2.39-.04-4.78-.1-7.17-.06-.85.01-1.33-.17-1.34-1.07-.24-.18-.27-.45-.28-.71-.02-1.41-.08-2.83.02-4.24.08-1.2.6-1.61,1.77-1.48,2.92.34,5.82.83,8.73,1.15.82.09,1.63.24,2.45.28.98.04,1,.03,1.18-.97.13-.72.21-1.46.33-2.18.05-.29.05-.59.24-.84-.07-.04-.15-.12-.22-.12-.86.05-1.34-.18-.98-1.18.2-.56-.16-.66-.65-.69-4.16-.27-8.33-.53-12.45-1.21-.54-.09-1.11-.08-1.61-.35-.31-.38-.25-.84-.25-1.27-.06-5.28.17-10.56.49-15.83.13-2.09.29-4.18.57-6.26.07-.53.17-1.05.37-1.55.46-1.15,1.18-1.86,2.54-1.99,3.82-.34,7.64-.59,11.47-.88,3.5-.26,7.01-.36,10.51-.64.44-.04.89-.09,1.26.25.39,2.12.38,4.28.48,6.43.22,4.48.32,8.96.23,13.45-.02,1.13-.02,1.13-1.19,1.14-6.34.08-12.69,0-19.03-.1-.72-.01-1.11.06-1.13.94-.04,1.26-.24,2.52-.41,3.77-.08.6.13.81.71.76.32-.03.65.04.97.02.54-.04.91.16,1.11.67.24-.2.53-.25.83-.22,3.61.26,7.22.42,10.83.62,2.85.15,5.69.34,8.54.44.95.03,1.95-.05,2.84.43Z"/>
  <path class="cls-31" d="M138.26,2.33c-7.03.33-14.06.73-21.08,1.36-.7.06-1.42.25-2.11.19-1.51-.14-2.19,1.07-2.46,2.17-.5,2.04-.6,4.14-.75,6.22-.41,6.06-.59,12.14-.57,18.22-1.27-.03-1.4-.14-1.38-1.35.05-3.48.07-6.95.19-10.43.11-3.29.3-6.58.52-9.86.09-1.31.24-2.64.56-3.91.36-1.43.86-1.78,2.64-1.91,3.6-.27,7.21-.51,10.81-.75,4.25-.28,8.5-.61,12.77-.67.53,0,.97.02.84.73Z"/>
  <path class="cls-31" d="M127.22,34.04c.14,1.4-.33,2.73-.48,4.1-.05.42-.38.28-.62.25-2.69-.34-5.38-.69-8.06-1.05-1.43-.19-2.86-.4-4.29-.6-.55-.07-1.06.58-1.06,1.42,0,1.62.04,3.24.06,4.87-.02.23-.01.48-.07.7-.09.31-.35.38-.63.31-.4-.09-.53-.37-.57-.78-.2-2.03-.19-4.06-.17-6.09,0-1.01.2-1.17,1.18-1.04,4.01.53,8.01,1.06,12.02,1.59.44.06.8.05.83-.58.03-.58.2-1.15.3-1.73q.24-1.36,1.58-1.38Z"/>
  <path class="cls-31" d="M143.04,30.68c-7.68-.42-15.36-.85-23.04-1.27-.03-.45.23-.52.61-.52,2.12-.02,4.23.11,6.33.33,1.2.12,2.4.03,3.61.17,1.6.18,3.23.18,4.84.21,2.38.05,4.74.44,7.13.36.56-.02.65.26.51.72Z"/>
  <path class="cls-20" d="M95.03,38.06c-.24-1.76-.23-1.78-1.99-1.95-1.38-.13-2.76-.18-4.14-.31-.6-.05-.76.18-.78.74-.1,2.59-.24,5.18-.34,7.77-.02.49-.1.75-.69.71-3.91-.21-7.83-.39-11.74-.59-.17,0-.34-.08-.51-.13-.18-.15-.2-.35-.18-.57.14-.66.08-1.33.06-2,.15-2.47.28-4.94.46-7.41.2-2.68.37-5.35.59-8.03.35-4.2.73-8.4,1.14-12.6.32-3.26.64-6.52.98-9.77.12-1.1.33-1.35,1.44-1.57,3.41-.69,6.86-.72,10.31-.67,2.68.04,5.34.3,8.01.55.27.03.53.07.71.3.41,3.18.83,6.37,1.24,9.55.56,4.32,1.14,8.64,1.68,12.97.58,4.65,1.13,9.3,1.68,13.95.19,1.58.32,3.17.53,4.74.08.61-.12.86-.72.87-1.74.01-3.48.02-5.22.07-.59.02-.35-.52-.59-.72-.33-.28-.3-.69-.36-1.05-.16-.98-.33-1.96-.41-2.95-.08-.86-.26-1.59-1.18-1.89Z"/>
  <path class="cls-31" d="M98.38,2.54c-4.47-.4-8.93-.71-13.42-.54-2.01.08-3.99.34-5.97.69-.49.09-.75.27-.81.84-.64,7.1-1.32,14.2-1.98,21.3-.53,5.66-.88,11.34-1.23,17.02-.18.65.04,1.32-.12,1.97,0,.16,0,.33,0,.49-.95-.03-1.48-.63-1.4-1.49.13-1.29.23-2.57.3-3.86.16-3.23.41-6.45.67-9.67.15-1.84.23-3.69.41-5.54.23-2.36.37-4.73.66-7.09.27-2.15.39-4.33.59-6.49.23-2.48.49-4.96.72-7.44.06-.63.47-.81,1-.9,1.8-.28,3.61-.52,5.43-.56,2.92-.06,5.83-.07,8.75.17,1.99.16,3.97.36,5.96.52.42.03.48.25.46.58Z"/>
  <path class="cls-31" d="M95.03,38.06c.85-.11,1.28.16,1.35,1.13.12,1.6.39,3.18.6,4.77-.1.27.1.69-.44.71-.48.02-.53-.33-.58-.63-.33-1.99-.63-3.98-.94-5.98Z"/>
  <path class="cls-20" d="M130.49,161.06c-.3-.36-.32-.82-.35-1.25-.04-.47-.22-.66-.71-.69-1.68-.09-3.36-.19-5.03-.34-.72-.07-.99.14-1.01.88-.08,2.5-.25,5.01-.33,7.51-.02.64-.16.86-.85.82-3.74-.22-7.48-.39-11.22-.56-.6-.03-.85-.25-.77-.87.05-.4,0-.82,0-1.23-.28-.32-.26-.72-.23-1.09.17-2.09.24-4.18.4-6.26.2-2.73.41-5.47.63-8.2.29-3.67.65-7.34.99-11.01.36-3.93.78-7.86,1.16-11.8.11-1.15.3-1.42,1.45-1.65,3.38-.67,6.8-.73,10.22-.67,2.71.05,5.4.27,8.1.55.27.03.53.08.71.3.35,2.69.71,5.37,1.06,8.06.56,4.32,1.13,8.65,1.68,12.97.52,4.09,1.02,8.19,1.51,12.28.3,2.46.57,4.92.84,7.38.15,1.35.11,1.39-1.23,1.4-1.39.01-2.78,0-4.16.04-.6.02-1.02-.08-1.09-.76-.35-.27-.29-.69-.35-1.06-.17-1.05-.34-2.1-.45-3.15-.08-.72-.27-1.31-.98-1.62Z"/>
  <path class="cls-31" d="M133.65,125.51c-4.53-.42-9.06-.71-13.62-.53-1.95.08-3.87.35-5.79.68-.52.09-.72.34-.77.87-.87,9.4-1.9,18.79-2.53,28.21-.23,3.53-.47,7.07-.71,10.6-.27.43-.1.92-.17,1.38-.03.19.06.44-.21.53-.25.09-.45-.03-.64-.2-.25-.23-.39-.49-.39-.85,0-3.09.31-6.16.52-9.24.13-1.85.23-3.7.38-5.54.27-3.3.51-6.61.84-9.91.2-2.04.36-4.09.57-6.14.28-2.74.44-5.5.86-8.22.02-.14.02-.29.03-.44.06-1.76.05-1.88,1.79-2.07,3.78-.41,7.57-.62,11.37-.28,1.11.1,2.23.21,3.34.2,1.57-.02,3.1.33,4.65.37.41.01.49.24.47.58Z"/>
  <path class="cls-31" d="M130.49,161.06c.76-.15,1.07.13,1.15.94.15,1.64.41,3.26.63,4.89-.11.26.12.68-.4.74-.46.05-.56-.27-.62-.58-.33-1.95-.73-3.89-.86-5.86,0-.04.07-.09.1-.14Z"/>
  <path class="cls-20" d="M61.35,125.48c.53.72.36,1.6.47,2.4,1.04,7.8,2.05,15.6,3.03,23.41.63,5.09,1.18,10.19,1.8,15.28.09.78-.13,1.06-.91,1.05-1.62-.02-3.25-.02-4.87.04-.48.02-.59-.24-.72-.56-.4-.35-.37-.85-.41-1.3-.11-1.11-.38-2.19-.45-3.31-.04-.59-.27-1.07-.74-1.42-.62-.23-.5-.8-.56-1.27-.05-.39-.11-.64-.6-.67-1.74-.09-3.47-.2-5.2-.35-.66-.05-.91.09-.93.83-.07,2.56-.24,5.12-.34,7.68-.02.51-.1.74-.68.71-3.82-.21-7.65-.38-11.47-.57-.26-.01-.52-.09-.78-.14-.2-.21-.22-.47-.18-.74.17-.72.09-1.45.07-2.17.19-3.21.37-6.41.63-9.61.2-2.5.38-4.99.59-7.49.29-3.53.63-7.05.96-10.57.31-3.29.65-6.57.99-9.86.12-1.14.25-1.28,1.37-1.5,3.44-.69,6.91-.74,10.4-.69,2.65.04,5.29.29,7.92.55.24.02.47.06.63.26Z"/>
  <path class="cls-31" d="M61.35,125.48c-4.29-.35-8.59-.67-12.9-.52-2.13.07-4.23.33-6.32.69-.54.09-.77.32-.82.91-.6,6.52-1.27,13.03-1.85,19.55-.46,5.2-.88,10.4-1.15,15.61-.05.91-.13,1.82-.19,2.74-.18.71.04,1.44-.13,2.14,0,.23,0,.45-.01.68-1.02-.01-1.26-.23-1.26-1.23,0-3.06.33-6.1.49-9.15.1-1.88.26-3.75.4-5.62.2-2.6.35-5.21.67-7.8.19-1.57.26-3.16.4-4.74.18-2.19.39-4.38.66-6.56.25-2.1.41-4.2.57-6.31.04-.57.13-.86.8-.98,4.14-.78,8.29-.73,12.48-.53,2.56.12,5.1.36,7.64.58.3.03.9-.19.54.54Z"/>
  <path class="cls-25" d="M58.55,161.06c.63-.09.84.17.9.81.18,1.75.46,3.48.7,5.22-.05.29-.08.57-.51.56-.37-.01-.42-.26-.49-.51-.49-1.86-.6-3.79-.97-5.67-.05-.27.17-.34.37-.4Z"/>
  <path class="cls-20" d="M31.21,125.49c.57.23.49.74.51,1.2.15,3.6.26,7.2.44,10.79.14,2.98.15,5.96.09,8.94-.02,1.27-.04,1.33-1.26,1.43-3.17.25-6.35.47-9.53.65-.64.04-.92.13-.93.87-.08,4.66-.22,9.32-.35,13.98-.03,1.3-.11,2.59-.11,3.89,0,.59-.19.77-.77.7-1.14-.14-2.29-.23-3.43-.31-1.47-.1-1.47-.09-1.81-1.43-.23-.18-.29-.45-.28-.72.04-1.15-.23-2.29-.19-3.44.1-3.25-.25-6.48-.17-9.73.02-.67-.28-1.04-.8-1.33-.5-.32-.19-.82-.22-1.22-.04-.59-.22-.81-.85-.78-2.51.11-5.02.18-7.52.25-.26,0-.53-.03-.79-.04-.63-.77-.52-1.74-.59-2.63-.24-3.03-.51-6.06-.39-9.1.16-4.04.28-8.08.75-12.1.14-1.23.36-1.44,1.55-1.44,2.98-.01,5.97-.15,8.94.05,3.97.26,7.95.39,11.91.81,1.63.17,3.28.23,4.92.39.32.03.66,0,.89.29Z"/>
  <path class="cls-31" d="M31.21,125.49c-5.74-.4-11.48-.85-17.22-1.18-3.3-.19-6.61-.22-9.91-.1-.63.02-.7.32-.75.8-.58,5.97-.92,11.95-.65,17.94.09,2.09.28,4.18.56,6.25-.63.34-1.05.24-1.16-.55-.19-1.39-.48-2.78-.58-4.18-.28-3.73-.27-7.48-.17-11.22.08-2.85.33-5.69.5-8.53.07-1.17.13-1.23,1.29-1.23,2.71,0,5.44-.14,8.14.05,3.22.24,6.45.3,9.67.58,1.95.17,3.92.33,5.89.44,1.46.08,2.92.23,4.39.36.15.01.31.04.35.21.05.24-.17.27-.33.34Z"/>
  <path class="cls-31" d="M12.61,151c.88-.21,1.12.12,1.12,1.03,0,4.73.13,9.46.33,14.19-.19.38.19,1.17-.25,1.14-.55-.05-.97-.71-1-1.37-.04-.73-.11-1.46-.16-2.2-.25-4-.22-8.01-.23-12.02,0-.27.03-.53.18-.76Z"/>
  <path class="cls-20" d="M49.11,2.33c.25.38.17.8.17,1.21,0,7.64-.13,15.29-.33,22.93-.02.87.21,1.15,1.06,1.07.52-.05,1.06-.09,1.57.13.25.19.55.22.84.23,2.5.11,5,.24,7.49.4,2.55.16,5.1.29,7.63.68.59.09,1.26-.2,1.76.34.11,3.65.22,7.31.34,10.96.06,1.79-.4,3.5-.66,5.24-.1.68-.56.73-1.1.71-2.89-.07-5.78-.12-8.67-.18-5.31-.11-10.61-.26-15.92-.29-.98,0-1.23-.09-1.48-.47-.26-.21.29-1.12.29-1.41.02-.98-.16-1.94-.18-2.91-.16-7.67-.34-15.34-.14-23,.1-3.78.05-7.55.14-11.32.03-1.15.2-2.29.2-3.44,0-.57.31-.93.84-1.12.39-.14.79-.29,1.2-.31,1.68-.08,3.34.05,4.95.58Z"/>
  <path class="cls-31" d="M49.11,2.33c-1.03-.09-2.05-.19-3.08-.27-.44-.04-.88-.06-1.32-.06-2.03.02-2.32.3-2.36,2.25-.26,11.76-.45,23.53-.13,35.29.05,1.71.13,3.42.2,5.13.02.4.01,1.02-.2.95-.44.1-.59-.46-.84-.78-.15-.2-.22-.4-.23-.65-.05-1.41-.12-2.82-.17-4.23-.39-10.61-.14-21.22-.14-31.83,0-1.97.13-3.94.13-5.91,0-.51.2-.7.69-.82,1.42-.36,2.81.05,4.21.1.98.04,1.96.32,2.94.49.18.03.47,0,.3.35Z"/>
  <path class="cls-32" d="M69.31,29.3c-5.69-.51-11.39-.98-17.11-1.08-.41,0-.71-.05-.61-.57.44-.24.92-.18,1.39-.15,1.37.1,2.74.25,4.12.31,2.93.13,5.86.32,8.77.69.93.12,1.87.16,2.81.21.4.02.72.07.64.59Z"/>
  <path class="cls-20" d="M102.98,125.13c.28.16.36.41.38.73.4,5.07.31,10.14.04,15.22-.19,3.57-.44,7.13-.6,10.69-.04.79-.31,1.06-1.08,1.1-5.58.31-11.15.49-16.71-.24-.7-.09-1.57-.39-2.07-.09-.58.34-.2,1.3-.21,1.98-.04,4.01-.03,8.03,0,12.05,0,1.18-.24,1.47-1.43,1.4-.94-.06-1.88-.15-2.83-.17-.74-.02-1.16-.24-1.05-1.08.04-.34.07-.71-.1-1.04-.33-.29-.3-.7-.29-1.07.1-3.66-.16-7.31-.22-10.97-.08-4.69-.2-9.37-.35-14.06-.12-3.54-.19-7.07-.31-10.61-.05-1.6.88-2.86,2.44-3.24,3.15-.77,6.32-1.43,9.58-1.64,2.69-.17,5.36-.11,8.04.08,1.94.14,3.86.41,5.79.63.34.04.71.08.98.34Z"/>
  <path class="cls-31" d="M102.98,125.13c-4.16-.49-8.32-.92-12.52-.89-4.13.04-8.14.81-12.12,1.8-.97.24-1.97,1.7-1.94,2.73.29,11.14.59,22.29.89,33.43.03,1.15.02,2.3.03,3.45-.01.44-.05.88-.04,1.32.01.41-.06.66-.57.67-.51,0-.68-.2-.66-.68.11-2.09-.22-4.18-.17-6.27.09-3.39-.13-6.78-.24-10.17-.07-2.27-.02-4.54-.13-6.8-.23-4.83-.34-9.66-.36-14.49,0-.47-.13-.93-.14-1.4-.03-1.45.6-2.32,2.01-2.65,3.17-.75,6.37-1.31,9.64-1.54,3.37-.24,6.71-.01,10.04.28,2.04.18,4.09.39,6.09.85.15.03.71-.03.17.37Z"/>
  <path class="cls-15" d="M89.13,30.01c-.14-.42-.37-.6-.87-.61-1.82-.03-1.8-.07-1.81-1.91-.02-2.27-.08-4.54-.13-6.81-.03-1.3.12-1.57,1.42-1.77,2.08-.32,4.18-.16,6.27-.03.38.02.5.22.49.58-.01.41,0,.82,0,1.23.25.27.42.57.41.95-.01,2.3.45,4.57.38,6.87-.04,1.41-.24,1.61-1.62,1.44-1.32-.16-2.65-.01-3.97-.15-.22-.02-.38.14-.57.2Z"/>
  <path class="cls-31" d="M89.13,30.01c.02-.51.26-.59.76-.51,1.51.26,3.06-.04,4.57.26.4.08.58-.14.58-.56,0-1.82-.09-3.64-.33-5.45-.13-1.02.08-2.06-.21-3.07.26.03.53.09.79.08.46-.02.59.2.62.64.16,2.73.32,5.46.53,8.19.06.78-.18.92-.92.86-1.99-.16-3.99-.22-5.99-.33-.15,0-.3,0-.4-.13Z"/>
  <path class="cls-8" d="M74.85,43.81c-.04-.66-.16-1.33.12-1.97.03.66.09,1.33-.12,1.97Z"/>
  <path class="cls-2" d="M124.43,152.94c-.19-.38-.42-.65-.91-.56-.25.05-.53-.02-.79-.02-.69,0-1-.2-1-1.02.02-2.68-.05-5.36-.14-8.04-.03-.81.34-1.22,1.07-1.35,2.22-.4,4.45-.22,6.68-.07.36.03.41.23.43.52.03.44.1.88.15,1.31.47.96.35,2.02.43,3.03.12,1.67.2,3.35.31,5.03.07,1-.2,1.29-1.23,1.17-1.47-.18-2.95-.01-4.42-.16-.22-.02-.4.09-.59.16Z"/>
  <path class="cls-31" d="M124.43,152.94c0-.33.09-.61.51-.51,1.59.37,3.23-.06,4.82.3.64.15.73-.25.68-.78-.25-2.74-.42-5.49-.51-8.24,1.19.04,1.2.04,1.28,1.25.17,2.61.33,5.22.5,7.84.02.32.11.69-.43.64-2.28-.22-4.57-.16-6.84-.5Z"/>
  <path class="cls-22" d="M52.3,152.96c-.18-.68-.74-.56-1.24-.59-1.71-.09-1.45.11-1.47-1.49-.04-2.5-.07-5.01-.15-7.51-.03-.89.35-1.31,1.17-1.45,2.17-.37,4.34-.18,6.52-.06.36.02.5.2.52.56.02.43-.08.89.17,1.3.16.18.26.4.25.64-.03,2.41.43,4.8.38,7.21-.03,1.31-.29,1.56-1.6,1.38-1.29-.18-2.59-.03-3.87-.19-.25-.03-.45.11-.66.2Z"/>
  <path class="cls-31" d="M52.3,152.96c-.04-.5.25-.63.66-.53,1.45.33,2.94-.02,4.39.31.66.15.83-.18.84-.83.03-2.47-.44-4.92-.39-7.39,0-.26,0-.53,0-.8,1.2.04,1.18.04,1.25,1.21.16,2.56.32,5.12.52,7.67.05.7-.12.92-.85.84-2.13-.25-4.29-.16-6.42-.47Z"/>
  <path class="cls-30" d="M37.99,166.6c-.03-.72-.15-1.44.13-2.14.03.72.1,1.44-.13,2.14Z"/>
  <path class="cls-17" d="M83.87,147.23c-.4-.76-1.2-.45-1.8-.6-.56-.14-.79-.3-.92-.92-.53-2.65-.13-5.28.05-7.92.02-.33.17-.45.5-.46,3.12-.05,6.24-.1,9.36-.17.4,0,.57.12.61.54.04.48.02,1,.34,1.42.32,2.02.45,4.04.03,6.06-.23,1.12-.37,1.28-1.49,1.41-2.05.23-4.1.44-6.16.55-.18,0-.36,0-.52.08Z"/>
  <path class="cls-31" d="M83.87,147.23c.05-.14-.06-.38.23-.38,2.11.05,4.19-.36,6.29-.48.81-.05,1.32-.29,1.43-1.23.2-1.61.28-3.21.05-4.82-.06-.41-.11-.82.13-1.2.74-.16,1.07.04,1.14.9.17,1.97.23,3.94.09,5.92-.05.75-.29,1.14-1.21,1.19-1.94.09-3.86.45-5.81.44-.79,0-1.59-.03-2.34-.35Z"/>
  <path class="cls-31" d="M91.44,20.71c.62.18,1.45-.25,1.86.23.39.46.04,1.26.15,1.89.29,1.6.04,3.23.32,4.83.12.68-.16.91-.92.8-1.27-.18-2.57-.19-3.86-.27-.3-.34-.27-.76-.27-1.17,0-1.56-.01-3.11,0-4.67.01-1.68,1.1-2.33,2.73-1.63Z"/>
  <path class="cls-19" d="M91.44,20.71q-2.52.05-2.49,2.54c.02,1.64.03,3.29.04,4.93-1.4-.01-1.35.18-1.36-1.31-.01-2-.03-4-.09-6-.02-.56.18-.79.73-.84,1.5-.13,3-.02,4.49,0,.2,0,.47,0,.48.26.02.36-.29.28-.51.31-.43.05-.88-.1-1.3.1Z"/>
  <path class="cls-31" d="M126.53,143.69c.67.04,1.49-.14,1.97.18.5.33.15,1.2.22,1.83.19,1.72.31,3.44.34,5.17,0,.62-.32.72-.77.61-.76-.19-1.52-.16-2.28-.14-.92.02-1.68-.09-1.72-1.25-.36-.32-.3-.75-.31-1.15-.01-1.24-.02-2.47,0-3.71.02-1.58,1.05-2.2,2.55-1.54Z"/>
  <path class="cls-24" d="M126.53,143.69q-2.37,0-2.31,2.35c.03,1.35.04,2.7.07,4.05-.16.33.19.8-.24,1.04-.49.27-1.07-.08-1.08-.65-.04-2.2-.07-4.41-.13-6.61-.01-.54.13-.82.7-.86,1.53-.11,3.06-.03,4.58,0,.21,0,.45.01.44.3,0,.29-.27.25-.47.26-.52.05-1.06-.11-1.57.12Z"/>
  <path class="cls-31" d="M54.23,143.7c.74.18,1.71-.31,2.19.23.44.49.1,1.41.16,2.14.12,1.6.22,3.21.34,4.81.04.53-.2.69-.68.59-1.36-.27-2.76-.02-4.11-.32-.32-.37-.26-.83-.27-1.27-.04-1.5.05-3.01-.14-4.51-.19-1.58.99-2.34,2.51-1.68Z"/>
  <path class="cls-12" d="M54.23,143.7c-2.29.02-2.27.03-2.18,2.24.07,1.74.05,3.48.07,5.22q-1.37.02-1.38-1.31c-.02-1.97-.01-3.94-.07-5.91-.02-.64.19-.9.83-.93,1.47-.08,2.94-.02,4.41.01.2,0,.45-.02.47.27.03.4-.3.27-.5.29-.55.05-1.12-.1-1.66.12Z"/>
  <path class="cls-31" d="M85.46,139.26c1.41,0,2.83.05,4.24.01.61-.02.96.14,1,.77.09,1.53.19,3.05-.07,4.58-.05.28-.11.48-.46.52-1.89.22-3.79.43-5.7.52-.36.02-.71.02-.92-.35-.32-.25-.29-.62-.31-.96-.1-1.41.13-2.81.22-4.21.07-1.07.85-1.38,2.01-.88Z"/>
  <path class="cls-16" d="M85.46,139.26c-1.92,0-1.66-.28-1.79,1.64-.1,1.47-.25,2.94-.12,4.41-.63.45-1.16.27-1.28-.42-.33-1.91-.02-3.81.04-5.72.01-.49.25-.64.72-.64,2.27-.02,4.53-.07,6.79-.1.31,0,.74-.08.72.41-.01.48-.45.25-.69.27-1.46.08-2.94-.07-4.4.16Z"/>
</svg>